ffmpeg started on 2026-04-01 at 11:39:25
Report written to "D:\Convert\FFMetrics\reports\ssim_report-6.txt"
Log level: 32
Command line:
ffmpeg -hide_banner -nostdin -r 24000/1001 -i "F:\\Convert\\files\\[DC] Make Heroine ga Oosugiru - 07_Telegram_HEVC(272).mkv" -r 24000/1001 -i "F:\\Convert\\files\\[DC] Make Heroine ga Oosugiru - 07_Telegram.mp4" -lavfi "[0:v]settb=AVTB,setpts=PTS-STARTPTS,format=pix_fmts=yuv420p10le,fps=24000/1001,scale=1920:1080:flags=lanczos:param0=3:out_range=limited:out_color_matrix=bt709:out_chroma_loc=left,setsar=1/1,setdar=(1920/1080)*(1/1),colorspace=format=yuv420p10:range=tv:primaries=bt709:trc=bt709:space=bt709:fast=0[main];[1:v]settb=AVTB,setpts=PTS-STARTPTS,format=pix_fmts=yuv420p,fps=24000/1001,scale=1920:1080:flags=lanczos:param0=3:out_range=limited:out_color_matrix=bt709:out_chroma_loc=left,setsar=1/1,setdar=(1920/1080)*(1/1),colorspace=format=yuv420p:range=tv:primaries=bt709:trc=bt709:space=bt709:fast=0[ref];[main][ref]ssim=eof_action=endall:stats_file='D\\:/Convert/FFMetrics/logs/ssim_logfile-6.txt'" -f null -
Input #0, matroska,webm, from 'F:\Convert\files\[DC] Make Heroine ga Oosugiru - 07_Telegram_HEVC(272).mkv':
  Metadata:
    COMPATIBLE_BRANDS: isomiso2avc1mp41
    MAJOR_BRAND     : isom
    MINOR_VERSION   : 512
    ENCODER         : Lavf61.7.100
  Duration: 00:24:06.79, start: -0.021000, bitrate: 933 kb/s
  Stream #0:0: Video: hevc (Main 10), yuv420p10le(tv, bt709, progressive), 1920x1080 [SAR 1:1 DAR 16:9], 23.98 fps, 23.98 tbr, 1k tbn (default)
      Metadata:
        HANDLER_NAME    : VideoHandler
        VENDOR_ID       : [0][0][0][0]
        ENCODER         : Lavc61.19.100 libx265
        BPS             : 736752
        DURATION        : 00:24:06.569708333
        NUMBER_OF_FRAMES: 34683
        NUMBER_OF_BYTES : 133220332
        _STATISTICS_WRITING_APP: mkvpropedit v94.0 ('Initiate') 64-bit
        _STATISTICS_WRITING_DATE_UTC: 2026-03-30 12:28:49
        _STATISTICS_TAGS: BPS DURATION NUMBER_OF_FRAMES NUMBER_OF_BYTES
  Stream #0:1: Audio: aac (LC), 48000 Hz, stereo, fltp (default)
      Metadata:
        HANDLER_NAME    : SoundHandler
        VENDOR_ID       : [0][0][0][0]
        ENCODER         : Lavc61.19.100 aac
        BPS             : 193194
        DURATION        : 00:24:06.784000000
        NUMBER_OF_FRAMES: 67819
        NUMBER_OF_BYTES : 34938755
        _STATISTICS_WRITING_APP: mkvpropedit v94.0 ('Initiate') 64-bit
        _STATISTICS_WRITING_DATE_UTC: 2026-03-30 12:28:49
        _STATISTICS_TAGS: BPS DURATION NUMBER_OF_FRAMES NUMBER_OF_BYTES
Input #1, mov,mp4,m4a,3gp,3g2,mj2, from 'F:\Convert\files\[DC] Make Heroine ga Oosugiru - 07_Telegram.mp4':
  Metadata:
    major_brand     : isom
    minor_version   : 512
    compatible_brands: isomiso2avc1mp41
    encoder         : Lavf60.16.100
  Duration: 00:24:06.74, start: 0.000000, bitrate: 3764 kb/s
  Stream #1:0[0x1](und): Video: h264 (High) (avc1 / 0x31637661), yuv420p(tv, bt709, progressive), 1920x1080 [SAR 1:1 DAR 16:9], 3616 kb/s, 23.98 fps, 23.98 tbr, 24k tbn (default)
      Metadata:
        handler_name    : VideoHandler
        vendor_id       : [0][0][0][0]
        encoder         : Lavc60.31.102 h264_qsv
  Stream #1:1[0x2](und): Audio: aac (HE-AACv2) (mp4a / 0x6134706D), 48000 Hz, stereo, fltp, 144 kb/s (default)
      Metadata:
        handler_name    : SoundHandler
        vendor_id       : [0][0][0][0]
Stream mapping:
  Stream #0:0 (hevc) -> settb:default
  Stream #1:0 (h264) -> settb:default
  ssim:default -> Stream #0:0 (wrapped_avframe)
  Stream #0:1 -> #0:1 (aac (native) -> pcm_s16le (native))
Output #0, null, to 'pipe:':
  Metadata:
    COMPATIBLE_BRANDS: isomiso2avc1mp41
    MAJOR_BRAND     : isom
    MINOR_VERSION   : 512
    encoder         : Lavf61.7.100
  Stream #0:0: Video: wrapped_avframe, yuv420p10le(tv, bt709, progressive), 1920x1080 [SAR 1:1 DAR 16:9], q=2-31, 200 kb/s, 23.98 fps, 23.98 tbn
      Metadata:
        encoder         : Lavc61.19.100 wrapped_avframe
  Stream #0:1: Audio: pcm_s16le, 48000 Hz, stereo, s16, 1536 kb/s (default)
      Metadata:
        HANDLER_NAME    : SoundHandler
        VENDOR_ID       : [0][0][0][0]
        _STATISTICS_TAGS: BPS DURATION NUMBER_OF_FRAMES NUMBER_OF_BYTES
        BPS             : 193194
        DURATION        : 00:24:06.784000000
        NUMBER_OF_FRAMES: 67819
        NUMBER_OF_BYTES : 34938755
        _STATISTICS_WRITING_APP: mkvpropedit v94.0 ('Initiate') 64-bit
        _STATISTICS_WRITING_DATE_UTC: 2026-03-30 12:28:49
        encoder         : Lavc61.19.100 pcm_s16le
frame=  109 fps=0.0 q=-0.0 size=N/A time=00:00:04.54 bitrate=N/A speed=8.95x    frame=  293 fps=288 q=-0.0 size=N/A time=00:00:12.22 bitrate=N/A speed=  12x    frame=  490 fps=317 q=-0.0 size=N/A time=00:00:20.43 bitrate=N/A speed=13.2x    frame=  682 fps=332 q=-0.0 size=N/A time=00:00:28.44 bitrate=N/A speed=13.8x    frame=  875 fps=341 q=-0.0 size=N/A time=00:00:36.49 bitrate=N/A speed=14.2x    frame= 1007 fps=327 q=-0.0 size=N/A time=00:00:42.00 bitrate=N/A speed=13.6x    frame= 1171 fps=325 q=-0.0 size=N/A time=00:00:48.84 bitrate=N/A speed=13.5x    frame= 1331 fps=324 q=-0.0 size=N/A time=00:00:55.51 bitrate=N/A speed=13.5x    frame= 1503 fps=324 q=-0.0 size=N/A time=00:01:02.68 bitrate=N/A speed=13.5x    frame= 1648 fps=319 q=-0.0 size=N/A time=00:01:08.73 bitrate=N/A speed=13.3x    frame= 1810 fps=319 q=-0.0 size=N/A time=00:01:15.49 bitrate=N/A speed=13.3x    frame= 1975 fps=319 q=-0.0 size=N/A time=00:01:22.37 bitrate=N/A speed=13.3x    frame= 2095 fps=312 q=-0.0 size=N/A time=00:01:27.37 bitrate=N/A speed=  13x    frame= 2243 fps=310 q=-0.0 size=N/A time=00:01:33.55 bitrate=N/A speed=12.9x    frame= 2390 fps=309 q=-0.0 size=N/A time=00:01:39.68 bitrate=N/A speed=12.9x    frame= 2525 fps=306 q=-0.0 size=N/A time=00:01:45.31 bitrate=N/A speed=12.8x    frame= 2683 fps=306 q=-0.0 size=N/A time=00:01:51.90 bitrate=N/A speed=12.7x    frame= 2866 fps=308 q=-0.0 size=N/A time=00:01:59.53 bitrate=N/A speed=12.9x    frame= 3042 fps=310 q=-0.0 size=N/A time=00:02:06.87 bitrate=N/A speed=12.9x    frame= 3238 fps=314 q=-0.0 size=N/A time=00:02:15.05 bitrate=N/A speed=13.1x    frame= 3435 fps=317 q=-0.0 size=N/A time=00:02:23.26 bitrate=N/A speed=13.2x    frame= 3627 fps=320 q=-0.0 size=N/A time=00:02:31.27 bitrate=N/A speed=13.3x    frame= 3816 fps=322 q=-0.0 size=N/A time=00:02:39.15 bitrate=N/A speed=13.4x    frame= 4010 fps=324 q=-0.0 size=N/A time=00:02:47.25 bitrate=N/A speed=13.5x    frame= 4205 fps=326 q=-0.0 size=N/A time=00:02:55.38 bitrate=N/A speed=13.6x    frame= 4397 fps=328 q=-0.0 size=N/A time=00:03:03.39 bitrate=N/A speed=13.7x    frame= 4573 fps=328 q=-0.0 size=N/A time=00:03:10.73 bitrate=N/A speed=13.7x    frame= 4779 fps=331 q=-0.0 size=N/A time=00:03:19.32 bitrate=N/A speed=13.8x    frame= 4977 fps=333 q=-0.0 size=N/A time=00:03:27.58 bitrate=N/A speed=13.9x    frame= 5161 fps=334 q=-0.0 size=N/A time=00:03:35.25 bitrate=N/A speed=13.9x    frame= 5352 fps=335 q=-0.0 size=N/A time=00:03:43.22 bitrate=N/A speed=  14x    frame= 5545 fps=336 q=-0.0 size=N/A time=00:03:51.27 bitrate=N/A speed=  14x    frame= 5741 fps=337 q=-0.0 size=N/A time=00:03:59.44 bitrate=N/A speed=14.1x    frame= 5926 fps=338 q=-0.0 size=N/A time=00:04:07.16 bitrate=N/A speed=14.1x    frame= 6117 fps=339 q=-0.0 size=N/A time=00:04:15.12 bitrate=N/A speed=14.1x    frame= 6312 fps=340 q=-0.0 size=N/A time=00:04:23.26 bitrate=N/A speed=14.2x    frame= 6500 fps=341 q=-0.0 size=N/A time=00:04:31.10 bitrate=N/A speed=14.2x    frame= 6696 fps=342 q=-0.0 size=N/A time=00:04:39.27 bitrate=N/A speed=14.2x    frame= 6890 fps=343 q=-0.0 size=N/A time=00:04:47.37 bitrate=N/A speed=14.3x    frame= 7081 fps=343 q=-0.0 size=N/A time=00:04:55.33 bitrate=N/A speed=14.3x    frame= 7262 fps=343 q=-0.0 size=N/A time=00:05:02.88 bitrate=N/A speed=14.3x    frame= 7454 fps=344 q=-0.0 size=N/A time=00:05:10.89 bitrate=N/A speed=14.4x    frame= 7632 fps=344 q=-0.0 size=N/A time=00:05:18.31 bitrate=N/A speed=14.4x    frame= 7827 fps=345 q=-0.0 size=N/A time=00:05:26.45 bitrate=N/A speed=14.4x    frame= 8011 fps=345 q=-0.0 size=N/A time=00:05:34.12 bitrate=N/A speed=14.4x    frame= 8199 fps=346 q=-0.0 size=N/A time=00:05:41.96 bitrate=N/A speed=14.4x    frame= 8379 fps=346 q=-0.0 size=N/A time=00:05:49.47 bitrate=N/A speed=14.4x    frame= 8566 fps=346 q=-0.0 size=N/A time=00:05:57.27 bitrate=N/A speed=14.4x    frame= 8750 fps=346 q=-0.0 size=N/A time=00:06:04.94 bitrate=N/A speed=14.4x    frame= 8941 fps=347 q=-0.0 size=N/A time=00:06:12.91 bitrate=N/A speed=14.5x    frame= 9138 fps=347 q=-0.0 size=N/A time=00:06:21.13 bitrate=N/A speed=14.5x    frame= 9328 fps=348 q=-0.0 size=N/A time=00:06:29.05 bitrate=N/A speed=14.5x    frame= 9514 fps=348 q=-0.0 size=N/A time=00:06:36.81 bitrate=N/A speed=14.5x    frame= 9705 fps=348 q=-0.0 size=N/A time=00:06:44.77 bitrate=N/A speed=14.5x    frame= 9887 fps=349 q=-0.0 size=N/A time=00:06:52.37 bitrate=N/A speed=14.5x    frame=10078 fps=349 q=-0.0 size=N/A time=00:07:00.33 bitrate=N/A speed=14.6x    frame=10269 fps=349 q=-0.0 size=N/A time=00:07:08.30 bitrate=N/A speed=14.6x    frame=10446 fps=349 q=-0.0 size=N/A time=00:07:15.68 bitrate=N/A speed=14.6x    frame=10633 fps=349 q=-0.0 size=N/A time=00:07:23.48 bitrate=N/A speed=14.6x    frame=10821 fps=350 q=-0.0 size=N/A time=00:07:31.32 bitrate=N/A speed=14.6x    frame=11011 fps=350 q=-0.0 size=N/A time=00:07:39.25 bitrate=N/A speed=14.6x    frame=11199 fps=350 q=-0.0 size=N/A time=00:07:47.09 bitrate=N/A speed=14.6x    frame=11394 fps=351 q=-0.0 size=N/A time=00:07:55.22 bitrate=N/A speed=14.6x    frame=11581 fps=351 q=-0.0 size=N/A time=00:08:03.02 bitrate=N/A speed=14.6x    frame=11772 fps=351 q=-0.0 size=N/A time=00:08:10.99 bitrate=N/A speed=14.6x    frame=11966 fps=351 q=-0.0 size=N/A time=00:08:19.08 bitrate=N/A speed=14.7x    frame=12153 fps=352 q=-0.0 size=N/A time=00:08:26.88 bitrate=N/A speed=14.7x    frame=12336 fps=352 q=-0.0 size=N/A time=00:08:34.51 bitrate=N/A speed=14.7x    frame=12527 fps=352 q=-0.0 size=N/A time=00:08:42.48 bitrate=N/A speed=14.7x    frame=12712 fps=352 q=-0.0 size=N/A time=00:08:50.19 bitrate=N/A speed=14.7x    frame=12894 fps=352 q=-0.0 size=N/A time=00:08:57.78 bitrate=N/A speed=14.7x    frame=13086 fps=352 q=-0.0 size=N/A time=00:09:05.79 bitrate=N/A speed=14.7x    frame=13276 fps=353 q=-0.0 size=N/A time=00:09:13.71 bitrate=N/A speed=14.7x    frame=13456 fps=353 q=-0.0 size=N/A time=00:09:21.22 bitrate=N/A speed=14.7x    frame=13639 fps=353 q=-0.0 size=N/A time=00:09:28.85 bitrate=N/A speed=14.7x    frame=13836 fps=353 q=-0.0 size=N/A time=00:09:37.07 bitrate=N/A speed=14.7x    frame=14019 fps=353 q=-0.0 size=N/A time=00:09:44.70 bitrate=N/A speed=14.7x    frame=14194 fps=353 q=-0.0 size=N/A time=00:09:52.00 bitrate=N/A speed=14.7x    frame=14392 fps=353 q=-0.0 size=N/A time=00:10:00.26 bitrate=N/A speed=14.7x    frame=14577 fps=353 q=-0.0 size=N/A time=00:10:07.98 bitrate=N/A speed=14.7x    frame=14761 fps=353 q=-0.0 size=N/A time=00:10:15.65 bitrate=N/A speed=14.7x    frame=14949 fps=353 q=-0.0 size=N/A time=00:10:23.49 bitrate=N/A speed=14.7x    frame=15127 fps=353 q=-0.0 size=N/A time=00:10:30.92 bitrate=N/A speed=14.7x    frame=15308 fps=353 q=-0.0 size=N/A time=00:10:38.47 bitrate=N/A speed=14.7x    frame=15497 fps=353 q=-0.0 size=N/A time=00:10:46.35 bitrate=N/A speed=14.7x    frame=15689 fps=354 q=-0.0 size=N/A time=00:10:54.36 bitrate=N/A speed=14.8x    frame=15891 fps=354 q=-0.0 size=N/A time=00:11:02.78 bitrate=N/A speed=14.8x    frame=16076 fps=354 q=-0.0 size=N/A time=00:11:10.50 bitrate=N/A speed=14.8x    frame=16263 fps=354 q=-0.0 size=N/A time=00:11:18.30 bitrate=N/A speed=14.8x    frame=16448 fps=354 q=-0.0 size=N/A time=00:11:26.01 bitrate=N/A speed=14.8x    frame=16640 fps=354 q=-0.0 size=N/A time=00:11:34.02 bitrate=N/A speed=14.8x    frame=16820 fps=354 q=-0.0 size=N/A time=00:11:41.53 bitrate=N/A speed=14.8x    frame=17017 fps=355 q=-0.0 size=N/A time=00:11:49.75 bitrate=N/A speed=14.8x    frame=17207 fps=355 q=-0.0 size=N/A time=00:11:57.67 bitrate=N/A speed=14.8x    frame=17399 fps=355 q=-0.0 size=N/A time=00:12:05.68 bitrate=N/A speed=14.8x    frame=17581 fps=355 q=-0.0 size=N/A time=00:12:13.27 bitrate=N/A speed=14.8x    frame=17764 fps=355 q=-0.0 size=N/A time=00:12:20.90 bitrate=N/A speed=14.8x    frame=17952 fps=355 q=-0.0 size=N/A time=00:12:28.74 bitrate=N/A speed=14.8x    frame=18155 fps=355 q=-0.0 size=N/A time=00:12:37.21 bitrate=N/A speed=14.8x    frame=18335 fps=355 q=-0.0 size=N/A time=00:12:44.72 bitrate=N/A speed=14.8x    frame=18525 fps=356 q=-0.0 size=N/A time=00:12:52.64 bitrate=N/A speed=14.8x    frame=18716 fps=356 q=-0.0 size=N/A time=00:13:00.61 bitrate=N/A speed=14.8x    frame=18906 fps=356 q=-0.0 size=N/A time=00:13:08.53 bitrate=N/A speed=14.8x    frame=19096 fps=356 q=-0.0 size=N/A time=00:13:16.46 bitrate=N/A speed=14.8x    frame=19286 fps=356 q=-0.0 size=N/A time=00:13:24.38 bitrate=N/A speed=14.9x    frame=19484 fps=356 q=-0.0 size=N/A time=00:13:32.64 bitrate=N/A speed=14.9x    frame=19673 fps=356 q=-0.0 size=N/A time=00:13:40.52 bitrate=N/A speed=14.9x    frame=19857 fps=356 q=-0.0 size=N/A time=00:13:48.20 bitrate=N/A speed=14.9x    frame=20056 fps=357 q=-0.0 size=N/A time=00:13:56.50 bitrate=N/A speed=14.9x    frame=20245 fps=357 q=-0.0 size=N/A time=00:14:04.38 bitrate=N/A speed=14.9x    frame=20420 fps=357 q=-0.0 size=N/A time=00:14:11.68 bitrate=N/A speed=14.9x    frame=20607 fps=357 q=-0.0 size=N/A time=00:14:19.48 bitrate=N/A speed=14.9x    frame=20793 fps=357 q=-0.0 size=N/A time=00:14:27.24 bitrate=N/A speed=14.9x    frame=20990 fps=357 q=-0.0 size=N/A time=00:14:35.45 bitrate=N/A speed=14.9x    frame=21184 fps=357 q=-0.0 size=N/A time=00:14:43.54 bitrate=N/A speed=14.9x    frame=21374 fps=357 q=-0.0 size=N/A time=00:14:51.47 bitrate=N/A speed=14.9x    frame=21567 fps=357 q=-0.0 size=N/A time=00:14:59.52 bitrate=N/A speed=14.9x    frame=21764 fps=357 q=-0.0 size=N/A time=00:15:07.74 bitrate=N/A speed=14.9x    frame=21949 fps=357 q=-0.0 size=N/A time=00:15:15.45 bitrate=N/A speed=14.9x    frame=22141 fps=358 q=-0.0 size=N/A time=00:15:23.46 bitrate=N/A speed=14.9x    frame=22323 fps=358 q=-0.0 size=N/A time=00:15:31.05 bitrate=N/A speed=14.9x    frame=22517 fps=358 q=-0.0 size=N/A time=00:15:39.14 bitrate=N/A speed=14.9x    frame=22715 fps=358 q=-0.0 size=N/A time=00:15:47.40 bitrate=N/A speed=14.9x    frame=22895 fps=358 q=-0.0 size=N/A time=00:15:54.91 bitrate=N/A speed=14.9x    frame=23082 fps=358 q=-0.0 size=N/A time=00:16:02.71 bitrate=N/A speed=14.9x    frame=23276 fps=358 q=-0.0 size=N/A time=00:16:10.80 bitrate=N/A speed=14.9x    frame=23465 fps=358 q=-0.0 size=N/A time=00:16:18.68 bitrate=N/A speed=14.9x    frame=23660 fps=358 q=-0.0 size=N/A time=00:16:26.81 bitrate=N/A speed=14.9x    frame=23849 fps=358 q=-0.0 size=N/A time=00:16:34.70 bitrate=N/A speed=14.9x    frame=24042 fps=358 q=-0.0 size=N/A time=00:16:42.75 bitrate=N/A speed=  15x    frame=24236 fps=359 q=-0.0 size=N/A time=00:16:50.84 bitrate=N/A speed=  15x    frame=24415 fps=359 q=-0.0 size=N/A time=00:16:58.30 bitrate=N/A speed=  15x    frame=24610 fps=359 q=-0.0 size=N/A time=00:17:06.44 bitrate=N/A speed=  15x    frame=24803 fps=359 q=-0.0 size=N/A time=00:17:14.49 bitrate=N/A speed=  15x    frame=24995 fps=359 q=-0.0 size=N/A time=00:17:22.49 bitrate=N/A speed=  15x    frame=25186 fps=359 q=-0.0 size=N/A time=00:17:30.46 bitrate=N/A speed=  15x    frame=25373 fps=359 q=-0.0 size=N/A time=00:17:38.26 bitrate=N/A speed=  15x    frame=25575 fps=359 q=-0.0 size=N/A time=00:17:46.69 bitrate=N/A speed=  15x    frame=25747 fps=359 q=-0.0 size=N/A time=00:17:53.86 bitrate=N/A speed=  15x    frame=25933 fps=359 q=-0.0 size=N/A time=00:18:01.62 bitrate=N/A speed=  15x    frame=26128 fps=359 q=-0.0 size=N/A time=00:18:09.75 bitrate=N/A speed=  15x    frame=26316 fps=359 q=-0.0 size=N/A time=00:18:17.59 bitrate=N/A speed=  15x    frame=26509 fps=359 q=-0.0 size=N/A time=00:18:25.64 bitrate=N/A speed=  15x    frame=26703 fps=359 q=-0.0 size=N/A time=00:18:33.73 bitrate=N/A speed=  15x    frame=26889 fps=359 q=-0.0 size=N/A time=00:18:41.49 bitrate=N/A speed=  15x    frame=27064 fps=359 q=-0.0 size=N/A time=00:18:48.79 bitrate=N/A speed=  15x    frame=27245 fps=359 q=-0.0 size=N/A time=00:18:56.34 bitrate=N/A speed=  15x    frame=27431 fps=359 q=-0.0 size=N/A time=00:19:04.10 bitrate=N/A speed=  15x    frame=27610 fps=359 q=-0.0 size=N/A time=00:19:11.56 bitrate=N/A speed=  15x    frame=27797 fps=359 q=-0.0 size=N/A time=00:19:19.36 bitrate=N/A speed=  15x    frame=27978 fps=359 q=-0.0 size=N/A time=00:19:26.91 bitrate=N/A speed=  15x    frame=28171 fps=359 q=-0.0 size=N/A time=00:19:34.96 bitrate=N/A speed=  15x    frame=28363 fps=359 q=-0.0 size=N/A time=00:19:42.97 bitrate=N/A speed=  15x    frame=28550 fps=359 q=-0.0 size=N/A time=00:19:50.77 bitrate=N/A speed=  15x    frame=28729 fps=359 q=-0.0 size=N/A time=00:19:58.23 bitrate=N/A speed=  15x    frame=28907 fps=359 q=-0.0 size=N/A time=00:20:05.66 bitrate=N/A speed=  15x    frame=29078 fps=359 q=-0.0 size=N/A time=00:20:12.79 bitrate=N/A speed=  15x    frame=29262 fps=359 q=-0.0 size=N/A time=00:20:20.46 bitrate=N/A speed=  15x    frame=29442 fps=359 q=-0.0 size=N/A time=00:20:27.97 bitrate=N/A speed=  15x    frame=29607 fps=359 q=-0.0 size=N/A time=00:20:34.85 bitrate=N/A speed=  15x    frame=29784 fps=359 q=-0.0 size=N/A time=00:20:42.24 bitrate=N/A speed=  15x    frame=29964 fps=359 q=-0.0 size=N/A time=00:20:49.74 bitrate=N/A speed=  15x    frame=30131 fps=358 q=-0.0 size=N/A time=00:20:56.71 bitrate=N/A speed=14.9x    frame=30313 fps=358 q=-0.0 size=N/A time=00:21:04.30 bitrate=N/A speed=14.9x    frame=30511 fps=358 q=-0.0 size=N/A time=00:21:12.56 bitrate=N/A speed=14.9x    frame=30688 fps=358 q=-0.0 size=N/A time=00:21:19.94 bitrate=N/A speed=14.9x    frame=30887 fps=359 q=-0.0 size=N/A time=00:21:28.24 bitrate=N/A speed=  15x    frame=31082 fps=359 q=-0.0 size=N/A time=00:21:36.37 bitrate=N/A speed=  15x    frame=31270 fps=359 q=-0.0 size=N/A time=00:21:44.21 bitrate=N/A speed=  15x    frame=31452 fps=359 q=-0.0 size=N/A time=00:21:51.81 bitrate=N/A speed=  15x    frame=31650 fps=359 q=-0.0 size=N/A time=00:22:00.06 bitrate=N/A speed=  15x    frame=31818 fps=359 q=-0.0 size=N/A time=00:22:07.07 bitrate=N/A speed=  15x    frame=31999 fps=359 q=-0.0 size=N/A time=00:22:14.62 bitrate=N/A speed=  15x    frame=32193 fps=359 q=-0.0 size=N/A time=00:22:22.71 bitrate=N/A speed=  15x    frame=32381 fps=359 q=-0.0 size=N/A time=00:22:30.55 bitrate=N/A speed=  15x    frame=32570 fps=359 q=-0.0 size=N/A time=00:22:38.44 bitrate=N/A speed=  15x    frame=32733 fps=358 q=-0.0 size=N/A time=00:22:45.23 bitrate=N/A speed=  15x    frame=32892 fps=358 q=-0.0 size=N/A time=00:22:51.87 bitrate=N/A speed=14.9x    frame=33077 fps=358 q=-0.0 size=N/A time=00:22:59.58 bitrate=N/A speed=14.9x    frame=33260 fps=358 q=-0.0 size=N/A time=00:23:07.21 bitrate=N/A speed=14.9x    frame=33438 fps=358 q=-0.0 size=N/A time=00:23:14.64 bitrate=N/A speed=14.9x    frame=33583 fps=358 q=-0.0 size=N/A time=00:23:20.69 bitrate=N/A speed=14.9x    frame=33744 fps=357 q=-0.0 size=N/A time=00:23:27.40 bitrate=N/A speed=14.9x    frame=33869 fps=357 q=-0.0 size=N/A time=00:23:32.61 bitrate=N/A speed=14.9x    frame=34024 fps=357 q=-0.0 size=N/A time=00:23:39.08 bitrate=N/A speed=14.9x    frame=34188 fps=356 q=-0.0 size=N/A time=00:23:45.92 bitrate=N/A speed=14.9x    frame=34338 fps=356 q=-0.0 size=N/A time=00:23:52.18 bitrate=N/A speed=14.8x    frame=34469 fps=355 q=-0.0 size=N/A time=00:23:57.64 bitrate=N/A speed=14.8x    frame=34661 fps=356 q=-0.0 size=N/A time=00:24:05.65 bitrate=N/A speed=14.8x    [Parsed_ssim_16 @ 0000027e0f34dbc0] SSIM Y:0.993891 (22.140099) U:0.993961 (22.190046) V:0.993567 (21.915983) All:0.993848 (22.110146)
[out#0/null @ 0000027e07fddec0] video:14903KiB audio:271276KiB subtitle:0KiB other streams:0KiB global headers:0KiB muxing overhead: unknown
frame=34683 fps=355 q=-0.0 Lsize=N/A time=00:24:06.57 bitrate=N/A speed=14.8x    
